<?xml version="1.0" encoding="utf-8"?>
<!-- Generator: Adobe Illustrator 15.0.2, SVG Export Plug-In . SVG Version: 6.00 Build 0)  -->
<svg version="1.2" baseProfile="tiny" id="Layer_1" xmlns="http://www.w3.org/2000/svg" xmlns:xlink="http://www.w3.org/1999/xlink"
	 x="0px" y="0px" width="185px" height="26px" viewBox="0 0 185 26" overflow="inherit" xml:space="preserve">
<path fill="#251802" d="M5.294,14.352V7.599l-2.1,0.912c0,0-0.535,1.155-0.443,2.84c0.073,1.312,0.833,2.885,1.417,3.542
	L5.294,14.352z M11.436,0.45c0.517,0.042,1.332,0.292,1.943,0.811c0.65,0.609,0.798,1.538,0.57,2.379
	c-0.203,0.752-0.429,1.144-1.222,1.659c-0.799,0.528-1.769,0.484-1.769,0.484v3.252l1.637,1.282l-1.637,1.277v4.438
	c0,0,1.642-0.914,2.657-2.944c0,0,0.042-0.114,0.137-0.327c0.091,0.55,0.038,1.656-0.6,3.068c-0.48,1.067-1.351,2.101-2.45,2.688
	c-1.94,1.037-3.398,1.139-4.958,0.824c-1.827-0.365-3.488-1.354-4.624-3.091c-0.793-1.224-1.15-2.644-1.118-4.175
	c0.066-3,2.37-5.583,5.032-6.556c0.325-0.115,0.455-0.193,0.913-0.23C5.736,5.427,5.492,5.605,5.191,5.796
	C4.333,6.349,3.596,7.431,3.285,8.267l5.167-2.23v6.995l-4.166,2.015c0.474,0.646,1.916,1.604,3.152,1.739
	c2.096,0.225,3.33-0.661,3.33-0.661l-0.002-4.53l-1.625-1.277l1.627-1.279V5.783c-0.887-0.1-1.966-0.385-2.597-0.537
	c-0.927-0.222-4.016-1.06-4.5-1.13C3.184,4.048,2.585,4.07,2.222,4.381C1.86,4.699,1.635,5.255,1.791,5.757
	C1.877,6.04,2.079,6.206,2.233,6.366c0,0-0.177-0.014-0.504-0.201C1.148,5.827,0.702,5.16,0.649,4.341
	c-0.066-1.064,0.389-2.031,1.3-2.683C2.743,1.168,3.64,0.85,4.684,0.992c1.521,0.21,3.566,1.047,5.39,1.469
	c0.706,0.164,1.254,0.218,1.749-0.062c0.232-0.157,0.639-0.573,0.307-1.131c-0.388-0.646-1.132-0.629-1.762-0.748
	C10.909,0.412,11.031,0.412,11.436,0.45"/>
<path fill="#251802" d="M31.545,12.593l-2.347,1.664V8.724L31.545,12.593z M31.479,7.271c0,0-1.58,0.934-2.646,1.545
	c-1.063,0.609-2.493,1.289-2.493,1.289v6.442l-0.952,0.737l0.127,0.146l0.928-0.728l2.913,2.547l5.062-3.879l-0.122-0.142
	L31.5,17.354l-2.3-2.084v-0.774l4.62-3.287L31.479,7.271z"/>
<path fill="#251802" d="M18.214,21.675c0.664,0.159,1.836,0.245,3.248-0.438c1.564-0.756,2.354-2.364,2.342-4.02l0.068-2.334V9.775
	l1-0.74L24.755,8.89l-0.984,0.723l-2.272-2.451l-2.916,2.425V1.352l-3.64,2.726c0.159,0.104,0.676,0.191,0.694,0.897v11.531
	l-1.546,1.104l0.106,0.156l0.746-0.537l2.074,1.869l3.264-2.518l-0.116-0.146l-0.769,0.592l-0.812-0.777l0.009-6.426l0.95-0.787
	l1.418,1.71c0,0-0.003,4.157,0.002,5.542c-0.011,1.47-0.014,3.311-0.815,4.195C19.347,21.376,19.025,21.441,18.214,21.675"/>
<path fill="#251802" d="M40.874,21.096c-1.305-0.146-1.853-0.91-1.838-1.515c0.012-0.392,0.373-1.146,1.165-1.252
	c0.791-0.103,1.602,0.257,2.288,1.035l3.012-3.224l-0.145-0.131l-0.809,0.879c-0.822-0.902-1.988-1.478-3.15-1.641V5.433
	l7.825,13.801c0,0,0.077,0.151,0.397,0.151c0.276,0.005,0.21-0.22,0.21-0.22L49.826,5.284c0.638-0.024,1.611-0.367,2.079-0.831
	c1.508-1.501,0.893-3.132,0.727-3.294c-0.092,0.717-0.657,1.433-1.605,1.438c-1.243,0.004-2.002-0.884-2.002-0.884l-3.01,3.319
	l0.144,0.128l0.861-0.951c1.055,0.937,1.824,1.026,2.619,1.075v8.059L43.832,3.131c-0.524-0.84-1.322-1.583-2.578-1.591
	c-1.443-0.008-2.474,1.221-2.6,2.277c-0.138,1.201,0.019,1.477,0.019,1.477s0.21-1.337,1.062-1.318
	c0.764,0.008,1.162,0.688,1.47,1.199v2.959c-0.79,0.057-2.843,0.139-2.972,2.21c-0.007,0.769,0.488,1.577,0.919,1.85
	c0.557,0.356,0.99,0.345,0.99,0.345s-0.667-0.343-0.468-1.023c0.18-0.602,1.484-0.701,1.531-0.448v4.168
	c-0.63-0.006-2.641,0.062-3.545,1.731c-0.548,1.003-0.514,2.136,0.069,2.929C38.206,20.547,39.187,21.376,40.874,21.096"/>
<path fill="#251802" d="M57.468,12.593l-2.345,1.664V8.724L57.468,12.593z M57.402,7.271c0,0-1.584,0.934-2.648,1.545
	c-1.066,0.609-2.492,1.289-2.492,1.289v6.442l-0.952,0.737l0.128,0.146l0.928-0.728l2.91,2.547l5.063-3.879l-0.12-0.142
	l-2.799,2.125l-2.297-2.084v-0.776l4.617-3.287L57.402,7.271z"/>
<path fill="#251802" d="M64.478,19.3l-2.481-1.995l-1.091,0.764l-0.107-0.146l1.105-0.78v-5.583
	c0.054-2.297-2.173-1.728-2.053-4.168c0.054-1.07,1.124-1.879,1.667-2.145c0.574-0.285,1.205-0.285,1.205-0.285
	s-1.019,0.615-0.772,1.5c0.381,1.362,2.788,1.482,2.831,3.297v6.33l1.78,1.381l0.467-0.354v-6.855l-0.96-0.92l2.468-2.109
	l2.256,1.931l-0.861,0.901v6.073l2.109,1.688l0.377-0.229v-7.312l-0.964-0.869l2.477-2.189L76.24,9.07l0.925-0.789l0.124,0.14
	l-2.079,1.765v5.958l-5.315,3.176l-2.721-2.082L64.478,19.3z"/>
<path fill="#251802" d="M173.299,12.593l-2.352,1.664V8.724L173.299,12.593z M173.229,7.271c0,0-1.584,0.934-2.646,1.545
	c-1.062,0.609-2.494,1.289-2.494,1.289v6.442l-0.95,0.737l0.127,0.146l0.93-0.728l2.91,2.547l5.062-3.879l-0.12-0.142l-2.796,2.125
	l-2.303-2.084l0.003-0.776l4.618-3.287L173.229,7.271z"/>
<polygon fill="#251802" points="150.467,9.97 150.591,10.107 151.545,9.316 152.957,10.865 152.957,16.191 152.273,16.794 
	154.479,19.209 156.738,17.051 155.809,16.118 155.809,9.676 156.371,9.242 157.938,11.009 157.938,16.32 157.35,16.889 
	159.428,19.148 161.646,16.999 160.828,16.172 160.809,9.702 161.406,9.234 163.039,10.972 163.039,16.251 162.503,16.771 
	164.797,19.191 167.873,16.438 167.745,16.302 166.994,16.969 165.848,15.739 165.848,9.711 166.955,8.898 166.839,8.75 
	165.73,9.564 163.637,7.291 160.645,9.583 158.546,7.376 155.654,9.562 153.536,7.383 "/>
<polygon fill="#251802" points="144.201,9.804 144.327,9.941 145.131,9.269 146.393,10.711 146.393,16.8 145.506,17.551 
	145.628,17.689 146.559,16.919 148.594,19.189 151.527,16.652 151.404,16.512 150.54,17.25 149.324,15.896 149.324,9.943 
	150.35,9.084 150.225,8.943 149.252,9.754 147.109,7.341 "/>
<polygon fill="#251802" points="145.05,4.763 147.259,2.804 149.057,4.731 146.836,6.683 "/>
<path fill="#251802" d="M134.934,14.352V7.599l-2.101,0.912c0,0-0.534,1.155-0.44,2.84c0.071,1.312,0.832,2.885,1.416,3.542
	L134.934,14.352z M141.073,0.45c0.52,0.042,1.331,0.292,1.942,0.811c0.65,0.609,0.801,1.538,0.568,2.379
	c-0.201,0.752-0.427,1.144-1.218,1.659c-0.806,0.528-1.771,0.484-1.771,0.484v3.252l1.637,1.282l-1.637,1.277v4.438
	c0,0,1.639-0.914,2.653-2.944c0,0,0.045-0.114,0.14-0.327c0.088,0.55,0.036,1.656-0.601,3.068c-0.479,1.067-1.354,2.101-2.45,2.688
	c-1.941,1.037-3.398,1.139-4.96,0.824c-1.829-0.365-3.487-1.354-4.621-3.091c-0.796-1.224-1.151-2.644-1.118-4.175
	c0.062-3,2.37-5.583,5.034-6.556c0.319-0.115,0.451-0.193,0.909-0.23c-0.212,0.139-0.452,0.316-0.756,0.508
	c-0.855,0.553-1.596,1.635-1.906,2.471l5.167-2.229v6.995l-4.167,2.015c0.477,0.646,1.917,1.604,3.15,1.74
	c2.101,0.226,3.332-0.662,3.332-0.662v-4.53l-1.629-1.277l1.629-1.279V5.783c-0.889-0.101-1.965-0.386-2.598-0.537
	c-0.929-0.222-4.02-1.06-4.5-1.13c-0.488-0.068-1.086-0.047-1.447,0.265c-0.362,0.318-0.59,0.874-0.435,1.376
	c0.087,0.283,0.289,0.449,0.438,0.609c0,0-0.178-0.014-0.498-0.201c-0.586-0.338-1.033-1.005-1.081-1.824
	c-0.07-1.064,0.389-2.031,1.3-2.683c0.793-0.49,1.689-0.808,2.732-0.666c1.521,0.21,3.565,1.047,5.394,1.469
	c0.706,0.164,1.254,0.218,1.748-0.062c0.229-0.157,0.638-0.573,0.308-1.131c-0.391-0.646-1.134-0.629-1.763-0.748
	C140.55,0.412,140.668,0.412,141.073,0.45"/>
<path fill="#251802" d="M179.814,8.521v3.196l1.104,0.933c0,0,2.389-1.857,3.258-3.571c0,0-1.076,1.411-2.519,0.979
	C180.445,9.697,179.814,8.521,179.814,8.521 M177.146,16.999c0,0,1.047-1.674,2.845-1.312c1.727,0.344,2.325,2.106,2.325,2.106
	v-4.062l-1.203-1.01C179.791,14.009,177.441,15.87,177.146,16.999 M178.859,20.087c-0.336,0.095-1.789-0.25-2.145-1.713
	c-0.342-1.422,0.688-2.388,2.229-3.907l-1.822-1.612V9.777c0,0,1.342-0.647,2.39-1.281c1.046-0.639,2.122-1.324,2.122-1.324
	s0.784,0.954,1.668,0.882c1.391-0.118,1.322-1.177,1.281-1.427c0.236,0.41,0.871,1.624-1.564,4.342L185,12.517v3.999
	c0,0-2.301,1.159-4.48,2.699c0,0-1.215-1.474-2.271-0.767C177.531,18.923,177.861,19.727,178.859,20.087"/>
<path fill="#251802" d="M99.152,15.532l2.56,2.247v-6.867l-2.56-2.289V15.532z M104.432,9.931l0.896-0.797l0.128,0.143l-0.871,0.779
	v6.357c0,0-1.647,0.854-2.803,1.478c-1.151,0.637-2.39,1.373-2.39,1.373l-3.026-2.474l-0.802,0.678l-0.131-0.145l0.844-0.709V9.777
	h0.011c0,0,1.43-0.624,2.638-1.281c1.078-0.589,2.284-1.273,2.284-1.273L104.432,9.931z"/>
<path fill="#251802" d="M110.389,9.29l1.928-1.907c0,0,0.268,0.225,0.517,0.344c0.142,0.067,0.726,0.354,1.257,0.073
	c0.291-0.155,0.33-0.195,0.65-0.485c0.062,1.482-0.672,2.521-1.588,2.953c-0.375,0.177-1.471,0.516-2.615-0.836v6.845l1.218,1.039
	l1.021-0.812l0.115,0.143l-3.187,2.574l-2.425-2.139l-0.868,0.799l-0.146-0.146l1.326-1.158l0.014-5.906l-1.021-1.308l-0.873,0.746
	l-0.126-0.134l3.085-2.689L110.389,9.29z"/>
<path fill="#251802" d="M118.51,12.142l3.559-5.014c0,0,0.472,0.537,1.289,0.744c1.107,0.281,2.082-0.758,2.082-0.758
	c-0.188,1.34-0.893,2.865-2.34,3.094c-1.275,0.205-2.465-0.754-2.465-0.754l-0.229,0.345l4.939,7.225l0.985-0.838l0.13,0.142
	l-3.395,2.864L118.51,12.142z M115.566,5.445v11.188l-1.481,1.249l0.138,0.142l0.844-0.726l2.123,1.931l3.129-2.646l-0.127-0.142
	l-0.771,0.65l-1.023-1.047V1.107l-3.881,2.637c0.598-0.047,1.057,0.621,1.057,1.701H115.566z"/>
<path fill="#251802" d="M90.642,9.646c0,0-0.43,0.473-1.109,0.473c-0.671,0-1.117-0.473-1.117-0.473v2.044
	c0,0,0.446-0.477,1.117-0.477c0.68,0,1.109,0.452,1.109,0.452V9.646z M90.642,5.262L89.14,3.988l-0.725,0.553V9.34
	c0,0,0.449,0.546,1.123,0.546c0.676,0,1.104-0.526,1.104-0.526V5.262z M88.415,18.852c0,0,0.91,0.237,1.568-0.289
	c0.731-0.586,0.658-1.403,0.658-1.403V11.98c0,0-0.428-0.524-1.104-0.524c-0.674,0-1.123,0.541-1.123,0.541L88.415,18.852
	L88.415,18.852z M83.111,5.197c0-1.002-0.425-1.571-1.111-1.584c-0.984-0.02-1.222,1.324-1.222,1.324s-0.18-1.035,0.72-1.979
	c0.504-0.53,1.446-1.266,2.917-0.924c1.521,0.355,1.956,1.496,1.956,2.506v13.905c0,0,0.572,0.062,0.968,0.146
	c0.455,0.097,0.891,0.216,0.891,0.216V2.04h0.186v2.263l3.123-2.429l2.281,1.963l1.062-0.895l0.121,0.143l-1.109,0.928v12.924
	c-0.061,0.85-0.196,1.703-1.021,2.194c-1.834,1.058-4.049-0.159-6.021-0.438c-1.465-0.207-3.762-0.479-4.336,0.822
	c-0.192,0.43-0.178,1.09,0.486,1.519c1.332,0.862,7.264-1.447,9.303-0.527c1.853,0.836,1.845,2.159,1.562,3.062
	c-0.484,1.705-2.707,2.005-2.707,2.005s1.087-0.608,0.776-1.619c-0.157-0.519-0.517-0.657-1.682-0.53
	c-2.543,0.276-5.581,1.473-7.625,0.645c-1.052-0.424-1.794-1.698-1.725-2.946c0.052-1.806,2.204-2.517,2.204-2.517v-6.661
	c-0.065-0.267-1.21-0.193-1.46,0.294c-0.381,0.738,0.472,1.083,0.472,1.083s-0.707,0.097-1.302-0.567
	c-0.29-0.32-0.895-1.455-0.11-2.505c0.646-0.864,1.421-1.015,2.4-1.121L83.111,5.197L83.111,5.197z"/>
</svg>
